<svg width="78" height="78" viewBox="0 0 78 78" fill="none" xmlns="http://www.w3.org/2000/svg">
<g clip-path="url(#clip0_30_24)">
<path d="M51.4839 7.5718C55.0204 10.6099 57.3511 14.8145 58.0542 19.4236H58.4999C62.9326 19.4236 67.1841 21.1845 70.3186 24.3191C73.4531 27.4536 75.2142 31.7049 75.2142 36.1379C75.2142 40.5708 73.4531 44.8221 70.3186 47.9566C67.1841 51.0912 62.9326 52.8521 58.4999 52.8521H19.4999C15.067 52.8521 10.8157 51.0912 7.68115 47.9566C4.54661 44.8221 2.78564 40.5708 2.78564 36.1379C2.78564 31.7049 4.54661 27.4536 7.68115 24.3191C10.8157 21.1845 15.067 19.4236 19.4999 19.4236C20.2028 14.8145 22.5337 10.6099 26.0703 7.5718C29.6068 4.5337 34.1148 2.86325 38.7771 2.86325C43.4394 2.86325 47.9474 4.5337 51.4839 7.5718Z" stroke="#D66D50" stroke-width="5.57143" stroke-linecap="round" stroke-linejoin="round"/>
<path d="M30.1968 36.1367L38.5539 44.4939V75.1369" stroke="#D66D50" stroke-width="5.57143" stroke-linecap="round" stroke-linejoin="round"/>
<path d="M38.5537 44.4939L46.9109 36.1367" stroke="#D66D50" stroke-width="5.57143" stroke-linecap="round" stroke-linejoin="round"/>
</g>
<defs>
<clipPath id="clip0_30_24">
<rect width="78" height="78" fill="white"/>
</clipPath>
</defs>
</svg>
