<svg width="30" height="30" viewBox="0 0 30 30" fill="none" xmlns="http://www.w3.org/2000/svg">
<g clip-path="url(#clip0_32_14)">
<path d="M19.8014 2.91222C21.1616 4.08072 22.058 5.69789 22.3284 7.47059H22.4999C24.2047 7.47059 25.8399 8.14789 27.0455 9.35348C28.2511 10.5591 28.9284 12.1942 28.9284 13.8992C28.9284 15.6041 28.2511 17.2393 27.0455 18.4449C25.8399 19.6504 24.2047 20.3277 22.4999 20.3277H7.49986C5.7949 20.3277 4.15977 19.6504 2.95417 18.4449C1.74858 17.2393 1.07129 15.6041 1.07129 13.8992C1.07129 12.1942 1.74858 10.5591 2.95417 9.35348C4.15977 8.14789 5.7949 7.47059 7.49986 7.47059C7.77018 5.69789 8.66671 4.08072 10.0269 2.91222C11.3871 1.74372 13.121 1.10124 14.9141 1.10124C16.7073 1.10124 18.4412 1.74372 19.8014 2.91222Z" stroke="#D66D50" stroke-width="5.57143" stroke-linecap="round" stroke-linejoin="round"/>
<path d="M11.6138 13.8987L14.8281 17.113V28.8988" stroke="#D66D50" stroke-width="5.57143" stroke-linecap="round" stroke-linejoin="round"/>
<path d="M14.8281 17.113L18.0424 13.8987" stroke="#D66D50" stroke-width="5.57143" stroke-linecap="round" stroke-linejoin="round"/>
</g>
<defs>
<clipPath id="clip0_32_14">
<rect width="30" height="30" fill="white"/>
</clipPath>
</defs>
</svg>
